HIERARCHY
ROOT hips
{
  OFFSET -0.00735851563513279 12.18665635585785 0.12248523347079754
  CHANNELS 6 Xposition Yposition Zposition Yrotation Xrotation Zrotation
  JOINT spine
  {
    OFFSET 1.0244548320770264e-7 0.5955291986465454 0
    CHANNELS 3 Yrotation Xrotation Zrotation
    JOINT chest
    {
      OFFSET 0 1.2719063864449713 0
      CHANNELS 3 Yrotation Xrotation Zrotation
      JOINT upperChest
      {
        OFFSET 0 1.490802666915459 0
        CHANNELS 3 Yrotation Xrotation Zrotation
        JOINT neck
        {
          OFFSET 0 1.3131953345263365 0
          CHANNELS 3 Yrotation Xrotation Zrotation
          JOINT head
          {
            OFFSET 0 0.8653679716847534 0
            CHANNELS 3 Yrotation Xrotation Zrotation
            JOINT leftEye
            {
              OFFSET 0.20629723300226033 0.6721053123474121 0.3036841657012701
              CHANNELS 3 Yrotation Xrotation Zrotation
              End Site
              {
                OFFSET 0.20629723300226033 0.6721053123474121 0.3036841657012701
              }
            }
            JOINT rightEye
            {
              OFFSET -0.20629652100615203 0.6721066236495972 0.30368443205952644
              CHANNELS 3 Yrotation Xrotation Zrotation
              End Site
              {
                OFFSET -0.20629652100615203 0.6721066236495972 0.30368443205952644
              }
            }
          }
        }
        JOINT leftShoulder
        {
          OFFSET 0.24624172446783632 0.959903359413147 0
          CHANNELS 3 Yrotation Xrotation Zrotation
          JOINT leftUpperArm
          {
            OFFSET 0.9650355761446514 0 0
            CHANNELS 3 Yrotation Xrotation Zrotation
            JOINT leftLowerArm
            {
              OFFSET 2.4419134471639827 0 0
              CHANNELS 3 Yrotation Xrotation Zrotation
              JOINT leftHand
              {
                OFFSET 2.3874557408809456 0 0
                CHANNELS 3 Yrotation Xrotation Zrotation
                JOINT leftIndexProximal
                {
                  OFFSET 0.7029628753662109 0.06118142604827881 0.23586585000157356
                  CHANNELS 3 Yrotation Xrotation Zrotation
                  JOINT leftIndexIntermediate
                  {
                    OFFSET 0.36102771759033203 -0.001475214958190918 0.056637559086084366
                    CHANNELS 3 Yrotation Xrotation Zrotation
                    JOINT leftIndexDistal
                    {
                      OFFSET 0.22344785928726196 -0.007408857345581055 0.02531452476978302
                      CHANNELS 3 Yrotation Xrotation Zrotation
                      End Site
                      {
                        OFFSET 0.22344785928726196 -0.007408857345581055 0.02531452476978302
                      }
                    }
                  }
                }
                JOINT leftLittleProximal
                {
                  OFFSET 0.6958752870559692 0.034375786781311035 -0.29472956992685795
                  CHANNELS 3 Yrotation Xrotation Zrotation
                  JOINT leftLittleIntermediate
                  {
                    OFFSET 0.34538060426712036 -0.0030041933059692383 0.00024324655532836914
                    CHANNELS 3 Yrotation Xrotation Zrotation
                    JOINT leftLittleDistal
                    {
                      OFFSET 0.19865047931671143 0.00746917724609375 -0.010377676226198673
                      CHANNELS 3 Yrotation Xrotation Zrotation
                      End Site
                      {
                        OFFSET 0.19865047931671143 0.00746917724609375 -0.010377676226198673
                      }
                    }
                  }
                }
                JOINT leftMiddleProximal
                {
                  OFFSET 0.7272291779518127 0.09209799766540527 0.05257739871740341
                  CHANNELS 3 Yrotation Xrotation Zrotation
                  JOINT leftMiddleIntermediate
                  {
                    OFFSET 0.40590834617614746 -0.014838695526123047 0.026817932724952698
                    CHANNELS 3 Yrotation Xrotation Zrotation
                    JOINT leftMiddleDistal
                    {
                      OFFSET 0.2495119571685791 -0.026458144187927246 0.010310646146535873
                      CHANNELS 3 Yrotation Xrotation Zrotation
                      End Site
                      {
                        OFFSET 0.2495119571685791 -0.026458144187927246 0.010310646146535873
                      }
                    }
                  }
                }
                JOINT leftRingProximal
                {
                  OFFSET 0.7334893345832825 0.09136629104614258 -0.1205735495314002
                  CHANNELS 3 Yrotation Xrotation Zrotation
                  JOINT leftRingIntermediate
                  {
                    OFFSET 0.3775520920753479 -0.005917906761169434 0.001896639820188284
                    CHANNELS 3 Yrotation Xrotation Zrotation
                    JOINT leftRingDistal
                    {
                      OFFSET 0.2177620530128479 0.007703900337219238 0.0027355607599020004
                      CHANNELS 3 Yrotation Xrotation Zrotation
                      End Site
                      {
                        OFFSET 0.2177620530128479 0.007703900337219238 0.0027355607599020004
                      }
                    }
                  }
                }
                JOINT leftThumbProximal
                {
                  OFFSET 0.02235114574432373 -0.07603192329406738 0.1950724683701992
                  CHANNELS 3 Yrotation Xrotation Zrotation
                  JOINT leftThumbIntermediate
                  {
                    OFFSET 0.3551589846611023 -0.02970755100250244 0.36741212010383606
                    CHANNELS 3 Yrotation Xrotation Zrotation
                    JOINT leftThumbDistal
                    {
                      OFFSET 0.23456048965454102 -0.016631245613098145 0.2093813568353653
                      CHANNELS 3 Yrotation Xrotation Zrotation
                      End Site
                      {
                        OFFSET 0.23456048965454102 -0.016631245613098145 0.2093813568353653
                      }
                    }
                  }
                }
              }
            }
          }
        }
        JOINT rightShoulder
        {
          OFFSET -0.24624088185373694 0.9600239992141724 0
          CHANNELS 3 Yrotation Xrotation Zrotation
          JOINT rightUpperArm
          {
            OFFSET -0.9650300767908009 0 0
            CHANNELS 3 Yrotation Xrotation Zrotation
            JOINT rightLowerArm
            {
              OFFSET -2.4420125187833426 0 0
              CHANNELS 3 Yrotation Xrotation Zrotation
              JOINT rightHand
              {
                OFFSET -2.3874255620910265 0 0
                CHANNELS 3 Yrotation Xrotation Zrotation
                JOINT rightIndexProximal
                {
                  OFFSET -0.7029609084129333 0.06117355823516846 0.23587234504520893
                  CHANNELS 3 Yrotation Xrotation Zrotation
                  JOINT rightIndexIntermediate
                  {
                    OFFSET -0.3610270619392395 -0.0014804601669311523 0.05664427950978279
                    CHANNELS 3 Yrotation Xrotation Zrotation
                    JOINT rightIndexDistal
                    {
                      OFFSET -0.2234485149383545 -0.0074127912521362305 0.025317884981632233
                      CHANNELS 3 Yrotation Xrotation Zrotation
                      End Site
                      {
                        OFFSET -0.2234485149383545 -0.0074127912521362305 0.025317884981632233
                      }
                    }
                  }
                }
                JOINT rightLittleProximal
                {
                  OFFSET -0.6958779096603394 0.034366607666015625 -0.29472311586141586
                  CHANNELS 3 Yrotation Xrotation Zrotation
                  JOINT rightLittleIntermediate
                  {
                    OFFSET -0.3453786373138428 -0.003008127212524414 0.00025422871112823486
                    CHANNELS 3 Yrotation Xrotation Zrotation
                    JOINT rightLittleDistal
                    {
                      OFFSET -0.19865179061889648 0.00746917724609375 -0.010371447540819645
                      CHANNELS 3 Yrotation Xrotation Zrotation
                      End Site
                      {
                        OFFSET -0.19865179061889648 0.00746917724609375 -0.010371447540819645
                      }
                    }
                  }
                }
                JOINT rightMiddleProximal
                {
                  OFFSET -0.7272304892539978 0.09209012985229492 0.05258418060839176
                  CHANNELS 3 Yrotation Xrotation Zrotation
                  JOINT rightMiddleIntermediate
                  {
                    OFFSET -0.4059063792228699 -0.014843940734863281 0.026821313425898552
                    CHANNELS 3 Yrotation Xrotation Zrotation
                    JOINT rightMiddleDistal
                    {
                      OFFSET -0.24951326847076416 -0.026460766792297363 0.010313207283616066
                      CHANNELS 3 Yrotation Xrotation Zrotation
                      End Site
                      {
                        OFFSET -0.24951326847076416 -0.026460766792297363 0.010313207283616066
                      }
                    }
                  }
                }
                JOINT rightRingProximal
                {
                  OFFSET -0.7334906458854675 0.09135580062866211 -0.12056719791144133
                  CHANNELS 3 Yrotation Xrotation Zrotation
                  JOINT rightRingIntermediate
                  {
                    OFFSET -0.37755340337753296 -0.005923151969909668 0.0019026175141334534
                    CHANNELS 3 Yrotation Xrotation Zrotation
                    JOINT rightRingDistal
                    {
                      OFFSET -0.21775943040847778 0.007701277732849121 0.0027383523993194103
                      CHANNELS 3 Yrotation Xrotation Zrotation
                      End Site
                      {
                        OFFSET -0.21775943040847778 0.007701277732849121 0.0027383523993194103
                      }
                    }
                  }
                }
                JOINT rightThumbProximal
                {
                  OFFSET -0.022347867488861084 -0.07603061199188232 0.19507363624870777
                  CHANNELS 3 Yrotation Xrotation Zrotation
                  JOINT rightThumbIntermediate
                  {
                    OFFSET -0.3550455570220947 -0.029461026191711426 0.36754218488931656
                    CHANNELS 3 Yrotation Xrotation Zrotation
                    JOINT rightThumbDistal
                    {
                      OFFSET -0.23451131582260132 -0.016489624977111816 0.20944765955209732
                      CHANNELS 3 Yrotation Xrotation Zrotation
                      End Site
                      {
                        OFFSET -0.23451131582260132 -0.016489624977111816 0.20944765955209732
                      }
                    }
                  }
                }
              }
            }
          }
        }
      }
    }
  }
  JOINT leftUpperLeg
  {
    OFFSET 0.8483456987887621 -0.42556869983673096 0
    CHANNELS 3 Yrotation Xrotation Zrotation
    JOINT leftLowerLeg
    {
      OFFSET 0 -4.6702112872869534 0
      CHANNELS 3 Yrotation Xrotation Zrotation
      JOINT leftFoot
      {
        OFFSET -0.13096565008163452 -5.202569782733917 -0.2985280640423298
        CHANNELS 3 Yrotation Xrotation Zrotation
        JOINT leftToes
        {
          OFFSET 0.01423943042755127 -0.7568342834711075 1.213271364569664
          CHANNELS 3 Yrotation Xrotation Zrotation
          End Site
          {
            OFFSET 0.01423943042755127 -0.7568342834711075 1.213271364569664
          }
        }
      }
    }
  }
  JOINT rightUpperLeg
  {
    OFFSET -0.8483468051999807 -0.42556607723236084 0
    CHANNELS 3 Yrotation Xrotation Zrotation
    JOINT rightLowerLeg
    {
      OFFSET 0 -4.670219469177788 0
      CHANNELS 3 Yrotation Xrotation Zrotation
      JOINT rightFoot
      {
        OFFSET 0.13097601756453514 -5.202573716640472 -0.29853164963424206
        CHANNELS 3 Yrotation Xrotation Zrotation
        JOINT rightToes
        {
          OFFSET -0.014232628047466278 -0.7568355947732925 1.213272675871849
          CHANNELS 3 Yrotation Xrotation Zrotation
          End Site
          {
            OFFSET -0.014232628047466278 -0.7568355947732925 1.213272675871849
          }
        }
      }
    }
  }
}
MOTION
Frames: 4
Frame Time: 0.03333333333333333
6.766583301500805 10.978506801643952 0 0 -2.0251039843986507 0 -0.0005417817930368852 -0.3605739627072033 0.040498660109322446 0.0008266467718666938 -3.261819664929575 0.011246222414686187 0 0 0 0.20867330914522755 15.423772375529865 2.0017592588742565 9.93923337957349e-17 3.1806657729010553e-15 1.5896085171965422e-15 0 0 0 0 0 0 -8.805302883527949 2.6003110075752334 -13.245124917500815 7.946261824353125 -0.815645303775189 9.195294151797198 -16.52320009587943 1.2187832491613373 4.6211160450061355 -1.6957400443280733e-14 2.0812754696826887e-13 7.357046754523309e-13 -3.6362923013974475 -2.244307238773714 -19.1331992307828 -7.100467301778522 3.6208598726743304 1.8225833510877834 0 0 0 37.98132903795241 3.8571197109621314 -18.213860060837895 -3.9815054993060692 -0.31200055448698594 -2.714025371509236 0 0 0 2.929467282294818 -1.2317410530999424 -10.132729622092112 -1.2464576280603077 0.3777279920650976 3.9817349636119856 0 0 0 18.72395458401292 0.4630544605552466 -17.775593849694907 -4.013708396721781 0.9952396653076988 -3.126586100320959 0 0 0 18.2690869785071 2.1086426759862387 -5.5655315414763 3.7170591655395477 8.635662614087984 -20.580556916942477 0 0 0 8.805302883527949 2.6003110075752334 13.245124917500815 -7.946261824353125 -0.815645303775189 -9.195294151797198 16.52320009587943 1.2187832491613373 -4.6211160450061355 -5.517534522472941e-14 -2.120535441532004e-13 7.336172423169686e-13 3.635273235640843 -2.2440197234261947 19.13241602264739 7.10074700779512 3.620750798807948 -1.822804381112586 0 0 0 -37.98306068627806 3.857696460990191 18.21308707412888 3.9815144424260245 -0.31200164840068895 2.714676042683495 0 0 0 -2.929954418445625 -1.2316699600172374 10.13199307278958 1.2463844327030156 0.3777063270880474 -3.9815534479925643 0 0 0 -18.724814804065176 0.46333589488999716 17.77479459089185 4.013885012324447 0.9952023070750878 3.126698833958267 0 0 0 -18.28773932428485 2.122714774290576 5.592006425941941 -3.7121664153589 8.636710981961548 20.57778314378226 0 0 0 0.09103140715624948 -3.9009050548841375 -0.4945708436230961 0.12220932311641859 -7.7060862390651454 -0.9234456673339894 -0.11383501023320355 3.107342588950113 0.5128345294025547 0 0 0 -0.10259803009791715 -4.051180478845199 0.5565460238204738 -0.1182703048789228 -7.4335960389088935 0.9235272934706741 0.11247011934370083 2.985266553004723 -0.513658507834428 0 0 0
-0.15638217953101538 -0.251141257433459 -0.03060493521787805 -13.471656693684814 1.8669911931325776 -0.4434241813510434 -1.6606605054066474 1.6509347931209928 3.5957797379236474 -0.4660764341810191 -1.0756101843412857 1.7744887954513495 0 0 0 1.3908078729862363 21.853131695791916 0.9379915966067999 2.217159356472278 0.7292575364846969 -4.300475930250685 0 0 0 0 0 0 -8.805302883527949 2.6003110075752334 -13.245124917500815 1.5402764360858627 7.974749971472733 -72.96376391891206 -39.65174852968865 5.763841606251837 16.52139871248098 -4.74574205281867 19.78182812553432 -7.310603353524 -3.6362923013974475 -2.244307238773714 -19.1331992307828 -7.100467301778522 3.6208598726743304 1.8225833510877834 0 0 0 37.98132903795241 3.8571197109621314 -18.213860060837895 -3.9815054993060692 -0.31200055448698594 -2.714025371509236 0 0 0 2.929467282294818 -1.2317410530999424 -10.132729622092112 -1.2464576280603077 0.3777279920650976 3.9817349636119856 0 0 0 18.72395458401292 0.4630544605552466 -17.775593849694907 -4.013708396721781 0.9952396653076988 -3.126586100320959 0 0 0 18.2690869785071 2.1086426759862387 -5.5655315414763 3.7170591655395477 8.635662614087984 -20.580556916942477 0 0 0 8.805302883527949 2.6003110075752334 13.245124917500815 -0.0032686531115470193 5.441219683157712 68.15323565911673 39.79988772506138 5.808832490636385 -16.5924041881777 4.9359150698749685 20.360597411667403 7.5669696482769995 3.635273235640843 -2.2440197234261947 19.13241602264739 7.10074700779512 3.620750798807948 -1.822804381112586 0 0 0 -37.98306068627806 3.857696460990191 18.21308707412888 3.9815144424260245 -0.31200164840068895 2.714676042683495 0 0 0 -2.929954418445625 -1.2316699600172374 10.13199307278958 1.2463844327030156 0.3777063270880474 -3.9815534479925643 0 0 0 -18.724814804065176 0.46333589488999716 17.77479459089185 4.013885012324447 0.9952023070750878 3.126698833958267 0 0 0 -18.28773932428485 2.122714774290576 5.592006425941941 -3.7121664153589 8.636710981961548 20.57778314378226 0 0 0 2.2628524992088166 -20.085120074648213 5.20337715145903 -0.6016454776631256 47.76456713079458 -0.9622861297686743 1.2644297575180714 4.7696115921983715 0.6822733443787191 0 0 0 -0.2967431205332169 -20.210707982876954 6.177451888834924 -0.00019460998116453365 17.0823247930632 0.8663037124465113 -1.2275792818976814 -8.275631816794524 -0.6265663555097053 0 0 0
-0.26307330812599905 -0.268781063976759 0.23452161539742197 -14.161557469356673 1.7522802736443894 -0.47613830394559703 -1.3332132966710295 1.7851785066810146 3.732200605795229 -0.33778943905139497 -2.8136805837580985 1.0050675566953473 0 0 0 1.3986663163477968 22.0444451041536 0.2119462743302792 2.6779492364402144 2.6581362864673834 -3.837396221740691 0 0 0 0 0 0 -8.805302883527949 2.6003110075752334 -13.245124917500815 -0.7811388874460277 11.575271134418035 -73.20094137739991 -42.913012043616014 6.799170869024833 18.061976696986886 -3.389143367902736 15.293585782213471 -5.427013542009448 -3.6362923013974475 -2.244307238773714 -19.1331992307828 -7.100467301778522 3.6208598726743304 1.8225833510877834 0 0 0 37.98132903795241 3.8571197109621314 -18.213860060837895 -3.9815054993060692 -0.31200055448698594 -2.714025371509236 0 0 0 2.929467282294818 -1.2317410530999424 -10.132729622092112 -1.2464576280603077 0.3777279920650976 3.9817349636119856 0 0 0 18.72395458401292 0.4630544605552466 -17.775593849694907 -4.013708396721781 0.9952396653076988 -3.126586100320959 0 0 0 18.2690869785071 2.1086426759862387 -5.5655315414763 3.7170591655395477 8.635662614087984 -20.580556916942477 0 0 0 8.805302883527949 2.6003110075752334 13.245124917500815 2.3376920533641363 5.11289468413303 67.72886195928636 39.33173769549646 5.667287714535824 -16.367799633666657 5.087880379323146 20.815067557131158 7.770654674336972 3.635273235640843 -2.2440197234261947 19.13241602264739 7.10074700779512 3.620750798807948 -1.822804381112586 0 0 0 -37.98306068627806 3.857696460990191 18.21308707412888 3.9815144424260245 -0.31200164840068895 2.714676042683495 0 0 0 -2.929954418445625 -1.2316699600172374 10.13199307278958 1.2463844327030156 0.3777063270880474 -3.9815534479925643 0 0 0 -18.724814804065176 0.46333589488999716 17.77479459089185 4.013885012324447 0.9952023070750878 3.126698833958267 0 0 0 -18.28773932428485 2.122714774290576 5.592006425941941 -3.7121664153589 8.636710981961548 20.57778314378226 0 0 0 2.8576598213394333 -23.82649006391814 5.256379743487664 -0.6877187339050941 49.133894814718104 -1.0292256611569999 4.40776897056087 0.15531717116421956 1.202901586969527 0 0 0 0.15337813749901646 -18.877552744641132 6.507356553737657 0.09384859552613987 17.71579588883093 0.9131889244928324 -1.6810275037872675 -9.958421451325696 -0.6955649876780362 0 0 0
-0.34994225294062614 -0.2972811028062339 0.5022696013921407 -14.072128266787383 1.6684030729483639 -0.32616579702794873 -0.7820167223546752 1.4697672088980551 3.2397635439616943 -0.18382128658700267 -3.060988749842041 0.8084881824930189 0 0 0 0.8594970452964723 22.332654130842453 -0.34746133135059526 2.014349855388029 2.8244742459141325 -3.7530570977095272 0 0 0 0 0 0 -8.805302883527949 2.6003110075752334 -13.245124917500815 0.8859042670283174 10.51165637856852 -72.91588776943246 -43.29830445169642 6.927643193830176 18.24087647003492 -3.7094820743001513 16.414873591611045 -5.881423240557168 -3.6362923013974475 -2.244307238773714 -19.1331992307828 -7.100467301778522 3.6208598726743304 1.8225833510877834 0 0 0 37.98132903795241 3.8571197109621314 -18.213860060837895 -3.9815054993060692 -0.31200055448698594 -2.714025371509236 0 0 0 2.929467282294818 -1.2317410530999424 -10.132729622092112 -1.2464576280603077 0.3777279920650976 3.9817349636119856 0 0 0 18.72395458401292 0.4630544605552466 -17.775593849694907 -4.013708396721781 0.9952396653076988 -3.126586100320959 0 0 0 18.2690869785071 2.1086426759862387 -5.5655315414763 3.7170591655395477 8.635662614087984 -20.580556916942477 0 0 0 8.805302883527949 2.6003110075752334 13.245124917500815 3.8634168629201757 3.604534013432403 66.88853642647507 39.169409203913446 5.618749391418992 -16.28964713268094 5.041012151362067 20.67565565605476 7.7079453603673285 3.635273235640843 -2.2440197234261947 19.13241602264739 7.10074700779512 3.620750798807948 -1.822804381112586 0 0 0 -37.98306068627806 3.857696460990191 18.21308707412888 3.9815144424260245 -0.31200164840068895 2.714676042683495 0 0 0 -2.929954418445625 -1.2316699600172374 10.13199307278958 1.2463844327030156 0.3777063270880474 -3.9815534479925643 0 0 0 -18.724814804065176 0.46333589488999716 17.77479459089185 4.013885012324447 0.9952023070750878 3.126698833958267 0 0 0 -18.28773932428485 2.122714774290576 5.592006425941941 -3.7121664153589 8.636710981961548 20.57778314378226 0 0 0 2.4353471712932535 -26.957832459747266 4.828892331581333 -0.7477640284295403 48.186639870850236 -1.096565611829316 6.7296914248128274 -3.5959049691310123 1.5974299514861345 0 0 0 -0.18756905412794767 -17.58960132396942 6.5063622189615575 0.20776969591303104 18.563098171755232 0.9663502872177608 -2.0073449129293692 -11.475000524191875 -0.7570977179138748 0 0 0
